<?xml version="1.0" encoding="utf-8"?>
<!-- Svg Vector Icons : http://www.onlinewebfonts.com/icon -->
<!DOCTYPE svg PUBLIC "-//W3C//DTD SVG 1.1//EN" "http://www.w3.org/Graphics/SVG/1.1/DTD/svg11.dtd">
<svg version="1.1" xmlns="http://www.w3.org/2000/svg" xmlns:xlink="http://www.w3.org/1999/xlink" x="0px" y="0px" viewBox="0 0 1000 1000" enable-background="new 0 0 1000 1000" xml:space="preserve">
<metadata> Svg Vector Icons : http://www.onlinewebfonts.com/icon </metadata>
<g><path d="M500,216.5c-270.7,0-490,38.7-490,62.5c0,23.6,219.3,43,490,43c270.7,0,490-19.4,490-43C990,255.2,770.7,216.5,500,216.5z"/><path d="M257.8,783.5l105.5-48.6V349.2c-67.3-0.6-49.7-2.4-105.5-5V783.5z"/><path d="M625.1,734.9l105.5,48.6V345.4c-56.6,2.2-39,3.8-105.5,4.2V734.9z"/><path d="M464.7,351.7h52.9v294.1h-52.9V351.7L464.7,351.7z"/></g>
</svg>